<svg width="113" height="142" viewBox="0 0 113 142" fill="none" xmlns="http://www.w3.org/2000/svg">
<path d="M43 62V57H8V47H18V27H23V17H28V12H43V7H50V12H53H56V7H63V12H83V17H88V27H93V47H103V57H63V62H43Z" fill="#D5D5D5"/>
<path d="M50 22V12H56V22H50Z" fill="#A5A5A5"/>
<path d="M63 27V12H68V27H63Z" fill="#A5A5A5"/>
<path d="M43 27V12H38V27H43Z" fill="#A5A5A5"/>
<path d="M13 52V47H43V52H63V47H88V27H83V17H78V12H83V17H88V27H93V47H98V52H63V57H43V52H13Z" fill="#A5A5A5"/>
<path d="M8 47H13V27H18V17H23V12H28V7H43V2H50V7H56V2H63V7H83V12H88V17H93V27H98V47H103V57H63V52H98V47H93V27H88V17H83V12H63V7H56V12H50V7H43V12H28V17H23V27H18V47H13V52H43V57H8V47Z" fill="black"/>
<path d="M43 62V57H63V62H43Z" fill="black"/>
<path d="M23 47H18V27H23V17H28V12H38V17H28V27H23V47Z" fill="#EDEDED"/>
<path d="M56 29H50V31H47V34H45V40H47V43H50V45H56V43H59V40H61V34H59V31H56V29Z" fill="#FDFBF4"/>
<path d="M55 34L49.5 39.5V41H51L56.5 35.5L55 34Z" fill="#D0B44F"/>
<path d="M49.5 39V41H51.5" stroke="black"/>
<path d="M50 38H51V39H50V38Z" fill="#C5A843"/>
<path d="M51 37H52V38H51V37Z" fill="#C5A843"/>
<path d="M52 36H53V37H52V36Z" fill="#C5A843"/>
<path d="M53 35H54V36H53V35Z" fill="#C5A843"/>
<path d="M54 34H55V35H54V34Z" fill="#C5A843"/>
<path d="M51.5 39.5H52.5V40.5H51.5V39.5Z" fill="#C5A843"/>
<path d="M52.5 38.5H53.5V39.5H52.5V38.5Z" fill="#C5A843"/>
<path d="M53.5 37.5H54.5V38.5H53.5V37.5Z" fill="#C5A843"/>
<path d="M54.5 36.5H55.5V37.5H54.5V36.5Z" fill="#C5A843"/>
<path d="M55.5 35.5H56.5V36.5H55.5V35.5Z" fill="#C5A843"/>
<path d="M56.5 35.5L55 34L56 33L57.5 34.5L56.5 35.5Z" fill="#E69898" stroke="#DE9898"/>
</svg>
