<svg width="113" height="142" viewBox="0 0 113 142" fill="none" xmlns="http://www.w3.org/2000/svg">
<path d="M52.5 6.5L35 47H71L52.5 6.5Z" fill="#68BED9"/>
<path d="M33 42H38V47H33V42Z" fill="#547FBF"/>
<path d="M35 37H40V42H35V37Z" fill="#547FBF"/>
<path d="M37 32H42V37H37V32Z" fill="#547FBF"/>
<path d="M39 27H44V32H39V27Z" fill="#547FBF"/>
<path d="M42 22H47V27H42V22Z" fill="#547FBF"/>
<path d="M45 17H50V22H45V17Z" fill="#547FBF"/>
<path d="M48 12H50.5V7H53V17H48V12Z" fill="#547FBF"/>
<path d="M68 42H73V47H68V42Z" fill="#547FBF"/>
<path d="M66 37H71V42H66V37Z" fill="#547FBF"/>
<path d="M64 32H69V37H64V32Z" fill="#547FBF"/>
<path d="M62 27H67V32H62V27Z" fill="#547FBF"/>
<path d="M59 22H64V27H59V22Z" fill="#547FBF"/>
<path d="M56 17H61V22H56V17Z" fill="#547FBF"/>
<path d="M53 7H55.5V12H58V17H53V7Z" fill="#547FBF"/>
<path d="M47 23H48.5V24H57V23H59M42 32H44V33H48V34H58V33H62V32H64M38 42H41V43H44V44H48V45H58V44H62V43H65V42H68" stroke="#6895D9" stroke-width="2"/>
</svg>
