<svg width="405" height="340" viewBox="0 0 405 340" fill="none" xmlns="http://www.w3.org/2000/svg">
<rect width="405" height="340" fill="transparent"/>
<rect x="40" y="251" width="28" height="48" fill="transparent" fill-opacity="0.5"/>
<rect x="40.75" y="251.75" width="26.5" height="46.5" stroke="black" stroke-opacity="0.25" stroke-width="1.5"/>
<rect x="68" y="251" width="28" height="48" fill="transparent" fill-opacity="0.5"/>
<rect x="68.75" y="251.75" width="26.5" height="46.5" stroke="black" stroke-opacity="0.25" stroke-width="1.5"/>
<rect x="96" y="251" width="28" height="48" fill="transparent" fill-opacity="0.5"/>
<rect x="96.75" y="251.75" width="26.5" height="46.5" stroke="black" stroke-opacity="0.25" stroke-width="1.5"/>
<rect x="124" y="251" width="28" height="48" fill="transparent" fill-opacity="0.5"/>
<rect x="124.75" y="251.75" width="26.5" height="46.5" stroke="black" stroke-opacity="0.25" stroke-width="1.5"/>
<rect x="152" y="251" width="28" height="48" fill="transparent" fill-opacity="0.5"/>
<rect x="152.75" y="251.75" width="26.5" height="46.5" stroke="black" stroke-opacity="0.25" stroke-width="1.5"/>
<rect x="180" y="251" width="28" height="48" fill="transparent" fill-opacity="0.5"/>
<rect x="180.75" y="251.75" width="26.5" height="46.5" stroke="black" stroke-opacity="0.25" stroke-width="1.5"/>
<rect x="208" y="251" width="28" height="48" fill="transparent" fill-opacity="0.5"/>
<rect x="208.75" y="251.75" width="26.5" height="46.5" stroke="black" stroke-opacity="0.25" stroke-width="1.5"/>
<rect x="236" y="251" width="28" height="48" fill="transparent" fill-opacity="0.5"/>
<rect x="236.75" y="251.75" width="26.5" height="46.5" stroke="black" stroke-opacity="0.25" stroke-width="1.5"/>
<rect x="264" y="251" width="28" height="48" fill="transparent" fill-opacity="0.5"/>
<rect x="264.75" y="251.75" width="26.5" height="46.5" stroke="black" stroke-opacity="0.25" stroke-width="1.5"/>
<rect x="292" y="251" width="28" height="48" fill="transparent" fill-opacity="0.5"/>
<rect x="292.75" y="251.75" width="26.5" height="46.5" stroke="black" stroke-opacity="0.25" stroke-width="1.5"/>
<rect x="320" y="251" width="28" height="48" fill="transparent" fill-opacity="0.5"/>
<rect x="320.75" y="251.75" width="26.5" height="46.5" stroke="black" stroke-opacity="0.25" stroke-width="1.5"/>
<rect x="348" y="251" width="28" height="48" fill="transparent" fill-opacity="0.5"/>
<rect x="348.75" y="251.75" width="26.5" height="46.5" stroke="black" stroke-opacity="0.25" stroke-width="1.5"/>
<path d="M88 59H76V119H88V59Z" fill="#DF0000"/>
<path d="M124 179H100V199H124V179Z" fill="#DF0000"/>
<path d="M136 179H124V187H136V179Z" fill="#DF0000"/>
<path d="M136 223H124V239H136V223Z" fill="#DF0000"/>
<path d="M172 235H136V239H172V235Z" fill="#DF0000"/>
<path d="M124 211H100V239H124V211Z" fill="#DF0000"/>
<path d="M292 179H316V199H292V179Z" fill="#DF0000"/>
<path d="M280 179H292V187H280V179Z" fill="#DF0000"/>
<path d="M280 223H292V239H280V223Z" fill="#DF0000"/>
<path d="M244 235H280V239H244V235Z" fill="#DF0000"/>
<path d="M292 211H316V239H292V211Z" fill="#DF0000"/>
<path d="M340 59H328V119H340V59Z" fill="#DF0000"/>
<path d="M328 47H88V179H328V47Z" fill="#DF0000"/>
<path d="M244 179H172V187H244V179Z" fill="#DF0000"/>
<path d="M232 187H184V199H232V187Z" fill="#DF0000"/>
<path d="M232 211H184V223H232V211Z" fill="#DF0000"/>
<path d="M244 223H172V239H244V223Z" fill="#DF0000"/>
<path d="M316 35H100V47H316V35Z" fill="#DF0000"/>
<rect x="64" y="59" width="12" height="60" fill="black"/>
<rect x="76" y="119" width="12" height="60" fill="black"/>
<rect x="88" y="179" width="12" height="60" fill="black"/>
<rect x="76" y="47" width="12" height="12" fill="black"/>
<rect x="88" y="35" width="12" height="12" fill="black"/>
<rect width="12" height="60" transform="matrix(-1 0 0 1 352 59)" fill="black"/>
<rect width="12" height="60" transform="matrix(-1 0 0 1 340 119)" fill="black"/>
<rect width="12" height="60" transform="matrix(-1 0 0 1 328 179)" fill="black"/>
<rect width="12" height="12" transform="matrix(-1 0 0 1 340 47)" fill="black"/>
<rect width="12" height="12" transform="matrix(-1 0 0 1 328 35)" fill="black"/>
<rect width="216" height="12" transform="matrix(-1 0 0 1 316 23)" fill="black"/>
<rect x="136" y="175" width="12" height="12" fill="black"/>
<rect x="148" y="175" width="12" height="12" fill="black"/>
<rect x="160" y="175" width="12" height="12" fill="black"/>
<rect x="172" y="187" width="12" height="12" fill="black"/>
<rect x="172" y="199" width="12" height="12" fill="black"/>
<rect x="172" y="211" width="12" height="12" fill="black"/>
<rect x="160" y="223" width="12" height="12" fill="black"/>
<rect x="148" y="223" width="12" height="12" fill="black"/>
<rect x="136" y="223" width="12" height="12" fill="black"/>
<rect x="124" y="211" width="12" height="12" fill="black"/>
<rect x="124" y="199" width="12" height="12" fill="black"/>
<rect x="124" y="187" width="12" height="12" fill="black"/>
<rect x="184" y="199" width="48" height="12" fill="black"/>
<rect x="100" y="199" width="24" height="12" fill="black"/>
<rect x="292" y="199" width="24" height="12" fill="black"/>
<rect x="244" y="175" width="12" height="12" fill="black"/>
<rect x="256" y="175" width="12" height="12" fill="black"/>
<rect x="268" y="175" width="12" height="12" fill="black"/>
<rect x="280" y="187" width="12" height="12" fill="black"/>
<rect x="280" y="199" width="12" height="12" fill="black"/>
<rect x="280" y="211" width="12" height="12" fill="black"/>
<rect x="268" y="223" width="12" height="12" fill="black"/>
<rect x="256" y="223" width="12" height="12" fill="black"/>
<rect x="244" y="223" width="12" height="12" fill="black"/>
<rect x="232" y="211" width="12" height="12" fill="black"/>
<rect x="232" y="199" width="12" height="12" fill="black"/>
<rect x="232" y="187" width="12" height="12" fill="black"/>
<rect x="64" y="239" width="288" height="12" fill="black"/>
<rect x="64" y="299" width="288" height="12" fill="black"/>
<path d="M52 239H64V251H52V239Z" fill="black"/>
<path d="M40 239H52V251H40V239Z" fill="black"/>
<path d="M40 251H52V263H40V251Z" fill="black"/>
<path d="M28 251H40V263H28V251Z" fill="black"/>
<path d="M28 263H40V275H28V263Z" fill="black"/>
<path d="M52 311H64V299H52V311Z" fill="black"/>
<path d="M40 311H52V299H40V311Z" fill="black"/>
<path d="M40 299H52V287H40V299Z" fill="black"/>
<path d="M28 299H40V287H28V299Z" fill="black"/>
<path d="M28 287H40V275H28V287Z" fill="black"/>
<path d="M364 239H352V251H364V239Z" fill="black"/>
<path d="M376 239H364V251H376V239Z" fill="black"/>
<path d="M376 251H364V263H376V251Z" fill="black"/>
<path d="M388 251H376V263H388V251Z" fill="black"/>
<path d="M388 263H376V275H388V263Z" fill="black"/>
<path d="M364 311H352V299H364V311Z" fill="black"/>
<path d="M376 311H364V299H376V311Z" fill="black"/>
<path d="M376 299H364V287H376V299Z" fill="black"/>
<path d="M388 299H376V287H388V299Z" fill="black"/>
<path d="M388 287H376V275H388V287Z" fill="black"/>
<path d="M136 187H172V223H136V187Z" fill="#CBEFFF"/>
<path d="M244 187H280V223H244V187Z" fill="#CBEFFF"/>
<path d="M130 148H142V160H130V148Z" fill="white"/>
<path d="M130 138H166V148H130V138Z" fill="white"/>
<path d="M142 126H154V138H142V126Z" fill="white"/>
<path d="M154 126H166V138H154V126Z" fill="white"/>
<path d="M166 138H178V148H166V138Z" fill="white"/>
<path d="M172 160H184V172H172V160Z" fill="white"/>
<path d="M124 160H136V172H124V160Z" fill="white"/>
<path d="M142 148H178V160H142V148Z" fill="white"/>
<path d="M238 148H250V160H238V148Z" fill="white"/>
<path d="M238 138H274V148H238V138Z" fill="white"/>
<path d="M250 126H262V138H250V126Z" fill="white"/>
<path d="M262 126H274V138H262V126Z" fill="white"/>
<path d="M274 138H286V148H274V138Z" fill="white"/>
<path d="M280 160H292V172H280V160Z" fill="white"/>
<path d="M232 160H244V172H232V160Z" fill="white"/>
<path d="M250 148H286V160H250V148Z" fill="white"/>
<path d="M124 172H136V187H124V172Z" fill="white"/>
<path d="M172 172H184V187H172V172Z" fill="white"/>
<path d="M136 160H172V175H136V160Z" fill="white"/>
<path d="M232 172H244V187H232V172Z" fill="white"/>
<path d="M280 172H292V187H280V172Z" fill="white"/>
<path d="M244 160H280V175H244V160Z" fill="white"/>
</svg>
