<?xml version="1.0" encoding="UTF-8"?>
<svg version="1.1" xmlns="http://www.w3.org/2000/svg" width="39" height="39">
<path d="M0 0 C5.28394267 2.94844001 8.91543295 7.80879886 10.8125 13.5 C11.58678275 19.93543201 10.78144025 25.2667159 6.8125 30.5 C1.35696099 35.54939224 -3.31184434 37.90291349 -10.78125 37.76953125 C-15.80693663 37.20658908 -19.55336044 35.26558122 -22.984375 31.55859375 C-27.53058759 25.68099032 -29.01803888 20.91466592 -28.1875 13.5 C-26.28764733 6.82026321 -22.04403701 2.97543983 -16.1875 -0.5 C-10.73620476 -2.31709841 -5.3120455 -2.31891217 0 0 Z " fill="#E8AF3C" transform="translate(28.1875,1.5)"/>
<path d="M0 0 C5.28394267 2.94844001 8.91543295 7.80879886 10.8125 13.5 C11.58678275 19.93543201 10.78144025 25.2667159 6.8125 30.5 C1.35696099 35.54939224 -3.31184434 37.90291349 -10.78125 37.76953125 C-15.80693663 37.20658908 -19.55336044 35.26558122 -22.984375 31.55859375 C-27.53058759 25.68099032 -29.01803888 20.91466592 -28.1875 13.5 C-26.28764733 6.82026321 -22.04403701 2.97543983 -16.1875 -0.5 C-10.73620476 -2.31709841 -5.3120455 -2.31891217 0 0 Z M-20.765625 7.046875 C-24.01591753 11.11908058 -25.67809144 15.25367519 -25.1875 20.5 C-23.66739575 25.86507382 -20.81992534 29.6306065 -16.10546875 32.5859375 C-12.02613082 34.53006189 -8.46890238 35.14639734 -4.078125 33.90234375 C1.04391044 31.67830204 4.4060837 28.54936069 6.8125 23.5 C8.32215671 19.06871353 8.17769486 15.60810027 6.3125 11.3125 C3.58000052 6.55869953 0.06035775 3.6064846 -5.13671875 1.8359375 C-11.32576515 0.59569637 -16.31722654 2.68656364 -20.765625 7.046875 Z " fill="#9E751C" transform="translate(28.1875,1.5)"/>
<path d="M0 0 C4.71445659 2.955331 7.561927 6.72086368 9.08203125 12.0859375 C9.57262269 17.33226231 7.91044878 21.46685692 4.66015625 25.5390625 C1.34428044 28.7892774 -2.29978389 30.84110724 -6.96484375 31.27734375 C-12.23102827 30.94055288 -16.24597301 28.83211497 -19.91796875 25.0859375 C-22.71433696 21.32530439 -24.28324668 17.75778331 -23.98046875 13.0234375 C-22.93076076 7.78518879 -20.36653782 3.90666835 -16.08984375 0.7265625 C-10.53396301 -2.46697525 -5.8007869 -2.76452981 0 0 Z M-19.29296875 6.3359375 C-21.41182205 9.92168924 -22.1143821 12.92852161 -21.91796875 17.0859375 C-20.20027521 22.23901811 -17.42384842 25.11035659 -12.91796875 28.0859375 C-9.45834392 29.29539984 -6.49075557 29.63146802 -2.9921875 28.41796875 C0.91837648 26.36638807 3.81384208 23.92441148 6.08203125 20.0859375 C7.31486981 15.97930974 7.38061074 12.98167598 6.01953125 8.8984375 C2.89556147 4.36364266 -0.33706588 1.09289542 -5.85546875 0.0234375 C-11.63878176 -0.3635911 -15.25932647 2.51459218 -19.29296875 6.3359375 Z " fill="#C99834" transform="translate(26.91796875,4.9140625)"/>
<path d="M0 0 C5.56261684 1.30885102 8.1146132 5.38885971 11 10 C12.81709841 15.45129524 12.81891217 20.8754545 10.5 26.1875 C7.55155999 31.47144267 2.69120114 35.10293295 -3 37 C-9.49036434 37.78089196 -14.64724789 36.84001782 -20 33 C-21.91370926 31.09558059 -23.4035816 29.1950753 -25 27 C-24.67 26.34 -24.34 25.68 -24 25 C-23.48050781 25.48210938 -22.96101563 25.96421875 -22.42578125 26.4609375 C-17.6128299 30.82017255 -14.27683712 33.62903731 -7.6875 34.375 C-3.0987984 33.90835238 0.24101824 32.67214573 4 30 C8.16914657 24.76184149 9.54727424 20.67674578 9 14 C7.10004697 8.55828671 4.20064798 4.85059398 0 1 C0 0.67 0 0.34 0 0 Z " fill="#453509" transform="translate(27,2)"/>
<path d="M0 0 C0.7734375 -0.01417969 1.546875 -0.02835937 2.34375 -0.04296875 C4.5 0.1875 4.5 0.1875 7.5 2.1875 C4.89951564 3.019655 3.08027058 3.16281003 0.3125 3 C-4.65180704 3.24414625 -8.43182243 4.27380526 -12.5 7.1875 C-16.85592266 12.90610435 -17.02048014 19.26222256 -16.5 26.1875 C-17.16 26.5175 -17.82 26.8475 -18.5 27.1875 C-20.31709841 21.73620476 -20.31891217 16.3120455 -18 11 C-14.23816998 4.25836915 -7.69019161 0.06408493 0 0 Z " fill="#413209" transform="translate(19.5,-0.1875)"/>
</svg>
