<svg xmlns="http://www.w3.org/2000/svg" width="24" height="24" viewBox="0 0 24 24"><path fill="currentColor" d="M9.32 16.326H7.04V14.96H3.996l-.872 1.366H0l.189-.255l3.274-4.548l3.091-4.302l1.386-.006h1.38zm-2.181-6.08l-.996 1.46l-.995 1.464l.989.019c.225 0 .434.005.605.005a3.702 3.702 0 0 0 .424-.011l-.014.001c.012-.012.014-.566.006-1.483zm4.836 6.08h-1.874V7.215h1.939a13.496 13.496 0 0 1 2.419.106l-.069-.008a3.666 3.666 0 0 1 2.49 2.028l.009.023a4.464 4.464 0 0 1 .526 2.455l.001-.014a4.222 4.222 0 0 1-.191 1.527l.008-.03a4.024 4.024 0 0 1-1.979 2.586l-.021.01c-.781.381-1.146.429-3.258.429zm.274-6.919v4.654l.866-.026c.994-.033 1.238-.119 1.634-.579a2.282 2.282 0 0 0 .52-1.729l.001.01a1.943 1.943 0 0 0-.181-1.118l.005.011c-.428-.921-.79-1.132-2.037-1.191l-.81-.032zm10.329 6.913c-.096 0-.141-.009-.155-.03s0-.042.01-.074c.506-1.32.803-2.846.814-4.44v-.005a13.27 13.27 0 0 0-.844-4.537l.03.092c-.014-.035-.016-.055-.006-.07c.023-.034.114-.041.357-.041c.314 0 .405.024.455.124c.239.654.445 1.435.581 2.239l.011.081c.107.635.168 1.366.168 2.111c0 1.419-.221 2.785-.63 4.068l.026-.095l-.182.553l-.416.02c-.103.002-.169.005-.219.005zm-4.232 0c-.055 0-.115 0-.195-.006l-.436-.02l.234-.351a7.383 7.383 0 0 0 1.134-3.079l.004-.038a10.77 10.77 0 0 0-.138-2.947l.01.066a7.853 7.853 0 0 0-1.171-2.614l.017.026l-.104-.143h.924l.176.274a8.4 8.4 0 0 1 .812 1.95l.014.061c.188.676.295 1.453.295 2.255a8.719 8.719 0 0 1-.871 3.811l.023-.052c-.344.7-.4.807-.73.807zm2.024 0a.581.581 0 0 1-.252-.026l.004.001c0-.024.135-.309.195-.43c.13-.26.262-.577.374-.904l.017-.056c.296-.922.466-1.983.466-3.084c0-1.497-.315-2.92-.883-4.207l.026.067a5.112 5.112 0 0 1-.195-.43a.585.585 0 0 1 .25-.027h-.003c.06 0 .124 0 .188.006l.436.019l.247.615c.442 1.159.698 2.5.698 3.9c0 1.465-.28 2.864-.789 4.148l.027-.076l-.18.453l-.436.02c-.064 0-.127.005-.188.005z"/></svg>