<svg width="113" height="142" viewBox="0 0 113 142" xmlns="http://www.w3.org/2000/svg">
<path d="M23 62H78V72H23V62Z" fill="#E8E8E8" fill-opacity="0.75"/>
<path d="M28 72H73V77H28V72Z" fill="#E8E8E8" fill-opacity="0.75"/>
<path d="M33 77H68V82H33V77Z" fill="#E8E8E8" fill-opacity="0.75"/>
<path d="M83 112H88V117H83V112Z" fill="#E8E8E8" fill-opacity="0.75"/>
<path d="M33 127H38V132H33V127Z" fill="#282828"/>
<path d="M38 127H43V132H38V127Z" fill="#282828"/>
<path d="M43 127H48V132H43V127Z" fill="#282828"/>
<path d="M48 122H53V127H48V122Z" fill="#282828"/>
<path d="M53 122H58V127H53V122Z" fill="#282828"/>
<path d="M58 127H63V132H58V127Z" fill="#282828"/>
<path d="M63 127H68V132H63V127Z" fill="#282828"/>
<path d="M73 127H78V132H73V127Z" fill="#282828"/>
<path d="M73 122H78V127H73V122Z" fill="#282828"/>
<path d="M73 117H78V122H73V117Z" fill="#282828"/>
<path d="M73 112H78V117H73V112Z" fill="#282828"/>
<path d="M73 107H78V112H73V107Z" fill="#282828"/>
<path d="M73 102H78V107H73V102Z" fill="#282828"/>
<path d="M73 97H78V102H73V97Z" fill="#282828"/>
<path d="M73 92H78V97H73V92Z" fill="#282828"/>
<path d="M73 87H78V92H73V87Z" fill="#282828"/>
<path d="M33 122H38V127H33V122Z" fill="#282828"/>
<path d="M33 117H38V122H33V117Z" fill="#282828"/>
<path d="M33 112H38V117H33V112Z" fill="#282828"/>
<path d="M33 107H38V112H33V107Z" fill="#282828"/>
<path d="M33 102H38V107H33V102Z" fill="#282828"/>
<path d="M33 97H38V102H33V97Z" fill="#282828"/>
<path d="M33 92H38V97H33V92Z" fill="#282828"/>
<path d="M33 87H38V92H33V87Z" fill="#282828"/>
<path d="M78 117H83V122H78V117Z" fill="#282828"/>
<path d="M78 87H83V92H78V87Z" fill="#282828"/>
<path d="M78 77H83V82H78V77Z" fill="#282828"/>
<path d="M83 77H88V82H83V77Z" fill="#282828"/>
<path d="M83 72H88V77H83V72Z" fill="#282828"/>
<path d="M83 67H88V72H83V67Z" fill="#282828"/>
<path d="M88 62H93V67H88V62Z" fill="#282828"/>
<path d="M88 57H93V62H88V57Z" fill="#282828"/>
<path d="M8 52H13V57H8V52Z" fill="#282828"/>
<path d="M98 47H103V52H98V47Z" fill="#282828"/>
<path d="M8 47H13V52H8V47Z" fill="#282828"/>
<path d="M13 47H18V52H13V47Z" fill="#282828"/>
<path d="M18 47H23V52H18V47Z" fill="#282828"/>
<path d="M23 47H28V52H23V47Z" fill="#282828"/>
<path d="M28 47H33V52H28V47Z" fill="#282828"/>
<path d="M33 47H38V52H33V47Z" fill="#282828"/>
<path d="M38 47H43V52H38V47Z" fill="#282828"/>
<path d="M43 47H48V52H43V47Z" fill="#282828"/>
<path d="M48 47H53V52H48V47Z" fill="#282828"/>
<path d="M53 47H58V52H53V47Z" fill="#282828"/>
<path d="M58 47H63V52H58V47Z" fill="#282828"/>
<path d="M63 47H68V52H63V47Z" fill="#282828"/>
<path d="M68 47H73V52H68V47Z" fill="#282828"/>
<path d="M73 47H78V52H73V47Z" fill="#282828"/>
<path d="M78 47H83V52H78V47Z" fill="#282828"/>
<path d="M83 47H88V52H83V47Z" fill="#282828"/>
<path d="M88 47H93V52H88V47Z" fill="#282828"/>
<path d="M93 47H98V52H93V47Z" fill="#282828"/>
<path d="M18 42H23V47H18V42Z" fill="#282828"/>
<path d="M18 37H23V42H18V37Z" fill="#282828"/>
<path d="M18 32H23V37H18V32Z" fill="#282828"/>
<path d="M18 27H23V32H18V27Z" fill="#282828"/>
<path d="M88 42H93V47H88V42Z" fill="#282828"/>
<path d="M88 37H93V42H88V37Z" fill="#282828"/>
<path d="M88 32H93V37H88V32Z" fill="#282828"/>
<path d="M88 27H93V32H88V27Z" fill="#282828"/>
<path d="M83 22H88V27H83V22Z" fill="#282828"/>
<path d="M83 17H88V22H83V17Z" fill="#282828"/>
<path d="M23 22H28V27H23V22Z" fill="#282828"/>
<path d="M23 17H28V22H23V17Z" fill="#282828"/>
<path d="M28 12H33V17H28V12Z" fill="#282828"/>
<path d="M33 12H38V17H33V12Z" fill="#282828"/>
<path d="M38 12H43V17H38V12Z" fill="#282828"/>
<path d="M43 12H48V17H43V12Z" fill="#282828"/>
<path d="M48 12H53V17H48V12Z" fill="#282828"/>
<path d="M28 42H33V47H28V42Z" fill="#282828"/>
<path d="M33 37H38V42H33V37Z" fill="#282828"/>
<path d="M38 42H43V47H38V42Z" fill="#282828"/>
<path d="M63 42H68V47H63V42Z" fill="#282828"/>
<path d="M68 37H73V42H68V37Z" fill="#282828"/>
<path d="M73 42H78V47H73V42Z" fill="#282828"/>
<path d="M53 12H58V17H53V12Z" fill="#282828"/>
<path d="M58 12H63V17H58V12Z" fill="#282828"/>
<path d="M63 12H68V17H63V12Z" fill="#282828"/>
<path d="M68 12H73V17H68V12Z" fill="#282828"/>
<path d="M73 12H78V17H73V12Z" fill="#282828"/>
<path d="M78 12H83V17H78V12Z" fill="#282828"/>
<path d="M98 52H103V57H98V52Z" fill="#282828"/>
<path d="M93 52H98V57H93V52Z" fill="#282828"/>
<path d="M18 72H23V77H18V72Z" fill="#282828"/>
<path d="M18 67H23V72H18V67Z" fill="#282828"/>
<path d="M18 62H23V67H18V62Z" fill="#282828"/>
<path d="M18 57H23V62H18V57Z" fill="#282828"/>
<path d="M33 62H38V67H33V62Z" fill="#282828"/>
<path d="M68 62H73V67H68V62Z" fill="#282828"/>
<path d="M88 52H93V57H88V52Z" fill="#282828"/>
<path d="M83 52H88V57H83V52Z" fill="#282828"/>
<path d="M78 52H83V57H78V52Z" fill="#282828"/>
<path d="M73 52H78V57H73V52Z" fill="#282828"/>
<path d="M68 52H73V57H68V52Z" fill="#282828"/>
<path d="M63 52H68V57H63V52Z" fill="#282828"/>
<path d="M58 52H63V57H58V52Z" fill="#282828"/>
<path d="M53 52H58V57H53V52Z" fill="#282828"/>
<path d="M48 52H53V57H48V52Z" fill="#282828"/>
<path d="M43 52H48V57H43V52Z" fill="#282828"/>
<path d="M38 52H43V57H38V52Z" fill="#282828"/>
<path d="M33 52H38V57H33V52Z" fill="#282828"/>
<path d="M28 52H33V57H28V52Z" fill="#282828"/>
<path d="M23 52H28V57H23V52Z" fill="#282828"/>
<path d="M18 52H23V57H18V52Z" fill="#282828"/>
<path d="M13 52H18V57H13V52Z" fill="#282828"/>
<path d="M83 92H88V97H83V92Z" fill="#282828"/>
<path d="M83 97H88V102H83V97Z" fill="#282828"/>
<path d="M83 102H88V107H83V102Z" fill="#282828"/>
<path d="M83 117H88V122H83V117Z" fill="#282828"/>
<path d="M88 107H93V112H88V107Z" fill="#282828"/>
<path d="M88 112H93V117H88V112Z" fill="#282828"/>
<path d="M28 117H33V122H28V117Z" fill="#282828"/>
<path d="M23 112H28V117H23V112Z" fill="#282828"/>
<path d="M23 107H28V112H23V107Z" fill="#282828"/>
<path d="M23 102H28V107H23V102Z" fill="#282828"/>
<path d="M23 97H28V102H23V97Z" fill="#282828"/>
<path d="M23 92H28V97H23V92Z" fill="#282828"/>
<path d="M23 87H28V92H23V87Z" fill="#282828"/>
<path d="M28 82H33V87H28V82Z" fill="#282828"/>
<path d="M33 82H38V87H33V82Z" fill="#282828"/>
<path d="M38 82H43V87H38V82Z" fill="#282828"/>
<path d="M43 82H48V87H43V82Z" fill="#282828"/>
<path d="M48 82H53V87H48V82Z" fill="#282828"/>
<path d="M53 82H58V87H53V82Z" fill="#282828"/>
<path d="M58 82H63V87H58V82Z" fill="#282828"/>
<path d="M63 82H68V87H63V82Z" fill="#282828"/>
<path d="M68 82H73V87H68V82Z" fill="#282828"/>
<path d="M73 82H78V87H73V82Z" fill="#282828"/>
<path d="M28 77H33V82H28V77Z" fill="#282828"/>
<path d="M23 77H28V82H23V77Z" fill="#282828"/>
<path d="M23 72H28V77H23V72Z" fill="#282828"/>
<path d="M68 127H73V132H68V127Z" fill="#282828"/>
<path d="M28 17H33V22H28V17Z" fill="#CECDCD" fill-opacity="0.75"/>
<path d="M28 22H33V27H28V22Z" fill="#CECDCD" fill-opacity="0.75"/>
<path d="M33 17H38V22H33V17Z" fill="#CECDCD" fill-opacity="0.75"/>
<path d="M38 17H43V22H38V17Z" fill="#CECDCD" fill-opacity="0.75"/>
<path d="M43 17H48V22H43V17Z" fill="#CECDCD" fill-opacity="0.75"/>
<path d="M48 17H53V22H48V17Z" fill="#CECDCD" fill-opacity="0.75"/>
<path d="M53 17H58V22H53V17Z" fill="#CECDCD" fill-opacity="0.75"/>
<path d="M58 17H63V22H58V17Z" fill="#CECDCD" fill-opacity="0.75"/>
<path d="M63 17H68V22H63V17Z" fill="#CECDCD" fill-opacity="0.75"/>
<path d="M68 17H73V22H68V17Z" fill="#CECDCD" fill-opacity="0.75"/>
<path d="M73 17H78V22H73V17Z" fill="#CECDCD" fill-opacity="0.75"/>
<path d="M78 17H83V22H78V17Z" fill="#CECDCD" fill-opacity="0.75"/>
<path d="M33 22H38V27H33V22Z" fill="#CECDCD" fill-opacity="0.75"/>
<path d="M38 22H43V27H38V22Z" fill="#CECDCD" fill-opacity="0.75"/>
<path d="M43 22H48V27H43V22Z" fill="#CECDCD" fill-opacity="0.75"/>
<path d="M48 22H53V27H48V22Z" fill="#CECDCD" fill-opacity="0.75"/>
<path d="M53 22H58V27H53V22Z" fill="#CECDCD" fill-opacity="0.75"/>
<path d="M58 22H63V27H58V22Z" fill="#CECDCD" fill-opacity="0.75"/>
<path d="M63 22H68V27H63V22Z" fill="#CECDCD" fill-opacity="0.75"/>
<path d="M68 22H73V27H68V22Z" fill="#CECDCD" fill-opacity="0.75"/>
<path d="M73 22H78V27H73V22Z" fill="#CECDCD" fill-opacity="0.75"/>
<path d="M78 22H83V27H78V22Z" fill="#CECDCD" fill-opacity="0.75"/>
<path d="M23 27H28V32H23V27Z" fill="#CECDCD" fill-opacity="0.75"/>
<path d="M28 27H33V32H28V27Z" fill="#CECDCD" fill-opacity="0.75"/>
<path d="M33 27H38V32H33V27Z" fill="#CECDCD" fill-opacity="0.75"/>
<path d="M38 27H43V32H38V27Z" fill="#CECDCD" fill-opacity="0.75"/>
<path d="M43 27H48V32H43V27Z" fill="#CECDCD" fill-opacity="0.75"/>
<path d="M48 27H53V32H48V27Z" fill="#CECDCD" fill-opacity="0.75"/>
<path d="M53 27H58V32H53V27Z" fill="#CECDCD" fill-opacity="0.75"/>
<path d="M58 27H63V32H58V27Z" fill="#CECDCD" fill-opacity="0.75"/>
<path d="M63 27H68V32H63V27Z" fill="#CECDCD" fill-opacity="0.75"/>
<path d="M68 27H73V32H68V27Z" fill="#CECDCD" fill-opacity="0.75"/>
<path d="M73 27H78V32H73V27Z" fill="#CECDCD" fill-opacity="0.75"/>
<path d="M78 27H83V32H78V27Z" fill="#CECDCD" fill-opacity="0.75"/>
<path d="M23 32H28V37H23V32Z" fill="#CECDCD" fill-opacity="0.75"/>
<path d="M28 32H33V37H28V32Z" fill="#CECDCD" fill-opacity="0.75"/>
<path d="M33 32H38V37H33V32Z" fill="#CECDCD" fill-opacity="0.75"/>
<path d="M38 32H43V37H38V32Z" fill="#CECDCD" fill-opacity="0.75"/>
<path d="M43 32H48V37H43V32Z" fill="#CECDCD" fill-opacity="0.75"/>
<path d="M48 32H53V37H48V32Z" fill="#CECDCD" fill-opacity="0.75"/>
<path d="M53 32H58V37H53V32Z" fill="#CECDCD" fill-opacity="0.75"/>
<path d="M58 32H63V37H58V32Z" fill="#CECDCD" fill-opacity="0.75"/>
<path d="M63 32H68V37H63V32Z" fill="#CECDCD" fill-opacity="0.75"/>
<path d="M68 32H73V37H68V32Z" fill="#CECDCD" fill-opacity="0.75"/>
<path d="M73 32H78V37H73V32Z" fill="#CECDCD" fill-opacity="0.75"/>
<path d="M78 32H83V37H78V32Z" fill="#CECDCD" fill-opacity="0.75"/>
<path d="M83 32H88V37H83V32Z" fill="#CECDCD" fill-opacity="0.75"/>
<path d="M83 27H88V32H83V27Z" fill="#CECDCD" fill-opacity="0.75"/>
<path d="M73 37H78V42H73V37Z" fill="#CECDCD" fill-opacity="0.75"/>
<path d="M78 37H83V42H78V37Z" fill="#CECDCD" fill-opacity="0.75"/>
<path d="M83 37H88V42H83V37Z" fill="#CECDCD" fill-opacity="0.75"/>
<path d="M78 42H83V47H78V42Z" fill="#CECDCD" fill-opacity="0.75"/>
<path d="M83 42H88V47H83V42Z" fill="#CECDCD" fill-opacity="0.75"/>
<path d="M38 37H43V42H38V37Z" fill="#CECDCD" fill-opacity="0.75"/>
<path d="M43 37H48V42H43V37Z" fill="#CECDCD" fill-opacity="0.75"/>
<path d="M48 37H53V42H48V37Z" fill="#CECDCD" fill-opacity="0.75"/>
<path d="M53 37H58V42H53V37Z" fill="#CECDCD" fill-opacity="0.75"/>
<path d="M58 37H63V42H58V37Z" fill="#CECDCD" fill-opacity="0.75"/>
<path d="M63 37H68V42H63V37Z" fill="#CECDCD" fill-opacity="0.75"/>
<path d="M43 42H48V47H43V42Z" fill="#CECDCD" fill-opacity="0.75"/>
<path d="M48 42H53V47H48V42Z" fill="#CECDCD" fill-opacity="0.75"/>
<path d="M53 42H58V47H53V42Z" fill="#CECDCD" fill-opacity="0.75"/>
<path d="M58 42H63V47H58V42Z" fill="#CECDCD" fill-opacity="0.75"/>
<path d="M23 37H28V42H23V37Z" fill="#CECDCD" fill-opacity="0.75"/>
<path d="M28 37H33V42H28V37Z" fill="#CECDCD" fill-opacity="0.75"/>
<path d="M23 42H28V47H23V42Z" fill="#CECDCD" fill-opacity="0.75"/>
<path d="M28 32H33V37H28V32Z" fill="white" fill-opacity="0.75"/>
<path d="M33 27H38V32H33V27Z" fill="white" fill-opacity="0.75"/>
<path d="M38 32H43V37H38V32Z" fill="white" fill-opacity="0.75"/>
<path d="M38 37H43V42H38V37Z" fill="white" fill-opacity="0.75"/>
<path d="M33 32H38V37H33V32Z" fill="white" fill-opacity="0.75"/>
<path d="M63 37H68V42H63V37Z" fill="white" fill-opacity="0.75"/>
<path d="M73 37H78V42H73V37Z" fill="white" fill-opacity="0.75"/>
<path d="M63 32H68V37H63V32Z" fill="white" fill-opacity="0.75"/>
<path d="M68 32H73V37H68V32Z" fill="white" fill-opacity="0.75"/>
<path d="M68 27H73V32H68V27Z" fill="white" fill-opacity="0.75"/>
<path d="M73 32H78V37H73V32Z" fill="white" fill-opacity="0.75"/>
<path d="M28 37H33V42H28V37Z" fill="white" fill-opacity="0.75"/>
<path d="M38 112H73V122H38V112Z" fill="#848484"/>
<path d="M38 122H48V127H38V122Z" fill="#848484"/>
<path d="M58 122H73V127H58V122Z" fill="#848484"/>
<path d="M43 87H63V112H43V87Z" fill="#E4E4E4"/>
<path d="M48 89H53V94H48V89Z" fill="#686868"/>
<path d="M43 87H48V92H43V87Z" fill="#686868"/>
<path d="M43 92H48V96H43V92Z" fill="#686868"/>
<path d="M53 92H58V96H53V92Z" fill="#686868"/>
<path d="M53 87H58V92H53V87Z" fill="#686868"/>
<path d="M38 87H43V112H38V87Z" fill="#515151"/>
<path d="M63 87H73V112H63V87Z" fill="#515151"/>
<path d="M28 87H33V112H28V87Z" fill="#515151"/>
<path d="M78 92H83V112H78V92Z" fill="#515151"/>
<path d="M83 107H88V112H83V107Z" fill="#515151"/>
<path d="M43 67H63V72H43V67Z" fill="black"/>
<path d="M38 72H48V77H38V72Z" fill="black"/>
<path d="M58 72H68V77H58V72Z" fill="black"/>
<path d="M48 72H58V77H48V72Z" fill="#FFE4CB" fill-opacity="0.75"/>
<path d="M23 57H88V62H23V57Z" fill="#CDCDCD" fill-opacity="0.75"/>
<path d="M78 62H88V67H78V62Z" fill="#CDCDCD" fill-opacity="0.75"/>
<path d="M78 67H83V72H78V67Z" fill="#CDCDCD" fill-opacity="0.75"/>
<path d="M78 72H83V77H78V72Z" fill="#CDCDCD" fill-opacity="0.75"/>
<path d="M73 72H78V77H73V72Z" fill="#CDCDCD" fill-opacity="0.75"/>
<path d="M73 77H78V82H73V77Z" fill="#CDCDCD" fill-opacity="0.75"/>
<path d="M68 77H73V82H68V77Z" fill="#CDCDCD" fill-opacity="0.75"/>
<path d="M78 112H83V117H78V112Z" fill="#CDCDCD" fill-opacity="0.75"/>
<path d="M28 112H33V117H28V112Z" fill="#CDCDCD" fill-opacity="0.75"/>
<path d="M53 72H58V77H53V72Z" fill="#CDCDCD" fill-opacity="0.75"/>
<path d="M48 72H53V77H48V72Z" fill="#CDCDCD" fill-opacity="0.75"/>
<path d="M68 42H73V47H68V42Z" fill="#A3A3A3" fill-opacity="0.75"/>
<path d="M33 42H38V47H33V42Z" fill="#A3A3A3" fill-opacity="0.75"/>
<path d="M63 67H73L68 72H63V67Z" fill="#A3A3A3" fill-opacity="0.75"/>
<path d="M73 67H78V72H73V67Z" fill="#A3A3A3" fill-opacity="0.75"/>
<path d="M73 57H78V62H73V57Z" fill="#A3A3A3" fill-opacity="0.75"/>
<path d="M63 57H68L73 62H63V57Z" fill="#A3A3A3" fill-opacity="0.75"/>
<path d="M63 62H73V67H63V62Z" fill="#A3A3A3" fill-opacity="0.75"/>
<path d="M73 67V72H68L73 67Z" fill="#A3A3A3" fill-opacity="0.75"/>
<path d="M73 62H78V67H73V62Z" fill="#A3A3A3" fill-opacity="0.75"/>
<path d="M68 57H73V62L68 57Z" fill="#A3A3A3" fill-opacity="0.75"/>
<path d="M28 87H33V112H28V87Z" fill="#373737"/>
<path d="M78 92H83V112H78V92Z" fill="#373737"/>
<path d="M68 87H73V112H68V87Z" fill="#373737"/>
<path d="M63 87H68V92H63V87Z" fill="#373737"/>
<path d="M38 87H43V92H38V87Z" fill="#373737"/>
<path d="M68 112H73V127H68V112Z" fill="#606060"/>
<path d="M43 122H48V127H43V122Z" fill="#606060"/>
<g style="mix-blend-mode:hard-light">
<path d="M43 87H63V92H43V87Z" fill="#616161"/>
</g>
<rect x="73" y="37" width="5" height="5" fill="#E4E3E3" fill-opacity="0.75"/>
<path d="M78 27H88V47H78V27Z" fill="#AEADAF" fill-opacity="0.75"/>
<path d="M78 22H83V27H78V22Z" fill="#AEADAF" fill-opacity="0.75"/>
<path d="M73 22H78V27H73V22Z" fill="#AEADAF" fill-opacity="0.75"/>
<path d="M68 22H73V27H68V22Z" fill="#AEADAF" fill-opacity="0.75"/>
<path d="M73 27H78V32H73V27Z" fill="#AEADAF" fill-opacity="0.75"/>
<path d="M63 22H68V27H63V22Z" fill="#AEADAF" fill-opacity="0.75"/>
<path d="M43 17H83V22H43V17Z" fill="#AEADAF" fill-opacity="0.75"/>
</svg>
