<svg id="Layer_1" xmlns="http://www.w3.org/2000/svg" viewBox="0 0 465.4 61.6">
  <style>
    .st1{fill:#fff}.st2{font-family:&apos;Avenir-Roman&apos;}.st3{font-size:14px}
  </style>
  <g id="qr">
    <path d="M389.2 30.9L359.4 1.1l3.1-.1h70.8c1.8 0 3.1.5 4.4 1.8l26.6 26.7 1.2 1.3-.9 1.1L437.4 59c-.9.8-2.3 1.5-3.5 1.5l-72.2.1h-2.1l29.6-29.7z" fill="#d80000"/>
    <text transform="translate(395.1 26.3)">
      <tspan x="0" y="0" class="st1 st2 st3">Quality</tspan><tspan x="0" y="16.8" class="st1 st2 st3">Review</tspan>
    </text>
  </g>
  <g id="prod">
    <path d="M202.7 59.9L232 30.7 202.7 1.4l.3-.6h151.3c1.7 0 2.9.5 4.2 1.8l26.4 26.5c.5.5 1.2.9 1.8 1.3l-1.4 1.6-27.4 27.3c-.7.7-2 1.3-3.1 1.3l-150.2.1H203l-.3-.8z" fill="#b20080"/>
    <text transform="translate(262.6 34.7)" class="st1 st2 st3">
      Production
    </text>
  </g>
  <g id="proto">
    <path d="M117.1 60.6l29.7-29.7-30-30h80.7a5 5 0 0 1 3.8 1.5l28.2 28.3-1.3 1.4L201 59.2c-.8.7-2 1.4-3 1.4l-79.2.1-1.7-.1z" fill="#930093"/>
    <text transform="translate(150 34.7)" class="st1 st2 st3">
      Prototype
    </text>
  </g>
  <g id="outline">
    <path d="M144 30.8l-18.1 18.1-10.4 10.3c-.7.7-1.7 1.3-2.6 1.3l-74.9.1 29.2-29.1L37.5 1.8l.5-.7 1.8-.1h72.4c1 0 2.2.2 2.8.8l29 29z" fill="#4500a8"/>
    <text transform="translate(74 26.3)">
      <tspan x="0" y="0" class="st1 st2 st3">Course</tspan><tspan x="0" y="16.8" class="st1 st2 st3">Outline</tspan>
    </text>
  </g>
  <g id="plan">
    <path d="M64.2 30.6L46.4 47.7c-3.8 3.7-7.6 7.4-11.6 11-.8.7-2.2 1.3-3.3 1.3l-29 .1c-1.9 0-2.5-.5-2.5-2.4V3.4C0 1.6.6 1 2.5 1.1l29.3.1c.9 0 2 .3 2.6.8l29.8 28.6z" fill="#0000e8"/>
    <text transform="translate(4 26.3)">
      <tspan x="0" y="0" class="st1 st2 st3">Design</tspan><tspan x="0" y="16.8" class="st1 st2 st3">Plan</tspan>
    </text>
  </g>
</svg>
